<svg xmlns="http://www.w3.org/2000/svg" aria-hidden="true" style="position:absolute;width:0;height:0;overflow:hidden">
  <defs>
    <symbol id="icon-As" viewBox="0 0 32 32">
      <path d="M15.504 3.2c-1.501 0-2.956.513-4.117 1.45S9.431 6.891 9.136 8.34l-.116.575a.991.991 0 0 0 .777 1.191c.132.026.267.025.399-.001s.256-.079.366-.155a.992.992 0 0 0 .418-.65l.118-.573c.222-1.075.84-2.03 1.737-2.681s2.006-.951 3.114-.843c1.108.108 2.136.618 2.884 1.43S19.997 8.501 20 9.598c0 1.175-.474 2.302-1.318 3.134s-1.988 1.298-3.182 1.299H1c-.265 0-.52.104-.707.288S0 14.754 0 15.015c0 .261.105.512.293.696s.442.288.707.288h14.5c1.696-.041 3.309-.733 4.494-1.928s1.849-2.799 1.849-4.47-.662-3.275-1.846-4.471a6.55 6.55 0 0 0-4.492-1.931zM27 12.062c-1.326 0-2.598.519-3.536 1.442S22 15.679 22 16.985c0 .261.105.512.293.696a1.011 1.011 0 0 0 1.414 0 .976.976 0 0 0 .293-.696c0-.584.176-1.155.506-1.641s.798-.864 1.346-1.088a3.038 3.038 0 0 1 3.269.64c.42.413.705.939.821 1.512s.056 1.167-.171 1.707-.612 1.001-1.105 1.326a3.029 3.029 0 0 1-1.667.498h-26c-.265 0-.52.104-.707.288s-.293.435-.293.696c0 .261.105.512.293.696s.442.288.707.288h19.5c.663.001 1.298.262 1.766.724s.73 1.089.729 1.742c-.001.653-.266 1.279-.736 1.739s-1.106.719-1.769.717c-.597 0-1.175-.207-1.632-.587s-.762-.905-.862-1.485l-.01-.059a.966.966 0 0 0-.398-.66 1.017 1.017 0 0 0-1.129-.039.991.991 0 0 0-.444.631.976.976 0 0 0-.002.392l.01.059c.178 1.04.724 1.984 1.542 2.664s1.854 1.054 2.924 1.054c1.195 0 2.341-.466 3.186-1.297s1.322-1.958 1.324-3.134c0-.912-.28-1.759-.758-2.462h2.758c1.326 0 2.598-.519 3.536-1.442s1.464-2.175 1.464-3.481-.527-2.558-1.464-3.481a5.041 5.041 0 0 0-3.536-1.442z"/>
      <path d="m15.504 3.2.198-7.998-.1-.002h-.1l.002 8zM9.136 8.34 1.297 6.745l-.003.013L9.136 8.34zm-.116.575 7.78 1.865.034-.141.029-.142-7.842-1.582zm1.96.386L3.144 7.687l-.03.147-.025.148L10.98 9.3zm.118-.573zm8.902.87h8v-.02l-8 .02zm-4.5 4.433v8h.004l-.004-8zM0 15.015zM15.5 16v8h.096l.096-.002L15.499 16zm8.5.985zM0 20.923zm20.5.985.016-8H20.5v8zm-.01 4.923.016-8h-.021l.006 8zm-2.494-2.072-7.888 1.335.002.013.002.013 7.883-1.362zm-.01-.059-7.925 1.091.017.123.021.122 7.888-1.335zm-1.972.323 7.888-1.335-.02-.119-.024-.119-7.844 1.573zm.01.059-7.888 1.335.002.014 7.885-1.349zM20.49 28.8l.004-8h-.005l.001 8zM25 24.369l8 .014v-.014h-8zm-.758-2.461v-8H9.128l8.498 12.498 6.616-4.498zM15.502-4.8a14.555 14.555 0 0 0-9.139 3.224l10.049 12.451a1.44 1.44 0 0 1-.906.325l-.004-16zM6.363-1.576a14.38 14.38 0 0 0-5.066 8.32l15.679 3.19c-.08.392-.29.719-.564.94L6.363-1.577zM1.294 6.758l-.116.575 15.684 3.164.116-.575L1.294 6.758zm-.054.292a8.974 8.974 0 0 0-.115 3.627l15.764-2.74a7.037 7.037 0 0 1-.09 2.843L1.24 7.05zm-.114 3.627a8.97 8.97 0 0 0 1.325 3.366l13.402-8.74c.518.794.872 1.69 1.037 2.634l-15.764 2.74zm1.325 3.366a8.976 8.976 0 0 0 2.518 2.552l8.922-13.282a7.005 7.005 0 0 1 1.962 1.99l-13.402 8.74zm2.518 2.552a9.03 9.03 0 0 0 3.283 1.361l3.091-15.698a6.995 6.995 0 0 1 2.548 1.056L4.969 16.596zm3.282 1.361a9.032 9.032 0 0 0 3.54-.011L8.599 2.267a6.996 6.996 0 0 1 2.743-.009L8.251 17.956zm3.541-.012a9.008 9.008 0 0 0 3.274-1.382L6.058 3.338a6.983 6.983 0 0 1 2.541-1.073l3.192 15.678zm3.274-1.382a8.981 8.981 0 0 0 2.502-2.569L4.109 5.341a7.01 7.01 0 0 1 1.95-2.003l9.008 13.224zm2.502-2.569a8.993 8.993 0 0 0 1.303-3.375L3.09 7.982a7.026 7.026 0 0 1 1.019-2.641l13.459 8.652zm1.248-3.079.118-.573L3.263 7.114l-.118.573 15.671 3.227zm.117-.57a3.577 3.577 0 0 1-1.396 2.175L8.132-.425a12.414 12.414 0 0 0-4.869 7.537l15.67 3.233zm-1.396 2.175a3.452 3.452 0 0 1-2.367.647l1.557-15.924A12.544 12.544 0 0 0 8.133-.425l9.405 12.944zm-2.367.647a3.475 3.475 0 0 1-2.218-1.11L24.715 1.21a12.522 12.522 0 0 0-7.988-3.969L15.17 13.165zm-2.219-1.11A3.61 3.61 0 0 1 12 9.618l16-.04a12.389 12.389 0 0 0-3.286-8.368L12.951 12.056zM12 9.598c0-.986.399-1.907 1.068-2.566l11.228 11.399A12.398 12.398 0 0 0 28 9.598H12zm1.068-2.566a3.465 3.465 0 0 1 2.428-1.002l.007 16a12.535 12.535 0 0 0 8.793-3.6L13.068 7.031zM15.5 6.031H1v16h14.5v-16zm-14.5 0a9.008 9.008 0 0 0-6.32 2.588L5.906 20.02A6.99 6.99 0 0 1 1 22.031v-16zm-6.32 2.588A8.979 8.979 0 0 0-8 15.016H8a7.021 7.021 0 0 1-2.094 5.004L-5.32 8.619zM-8 15.015c0 2.423.979 4.722 2.68 6.397L5.906 10.011A7.023 7.023 0 0 1 8 15.015H-8zm2.68 6.397A9.008 9.008 0 0 0 1 24V8a6.99 6.99 0 0 1 4.906 2.011L-5.32 21.412zM1 24h14.5V8H1v16zm14.693-.002a14.545 14.545 0 0 0 9.982-4.294L14.312 8.44a1.45 1.45 0 0 1 .995-.437l.386 15.995zm9.982-4.294a14.35 14.35 0 0 0 4.168-10.1l-16-.005c0-.456.183-.87.47-1.16l11.363 11.264zm4.168-10.1A14.353 14.353 0 0 0 25.682-.498L14.312 10.76a1.65 1.65 0 0 1-.469-1.16l16 .005zM25.681-.498a14.552 14.552 0 0 0-9.98-4.3l-.396 15.995a1.452 1.452 0 0 1-.995-.438L25.68-.499zM27 4.062a13.04 13.04 0 0 0-9.148 3.741l11.226 11.401a2.96 2.96 0 0 1-2.077.858v-16zm-9.148 3.741A12.888 12.888 0 0 0 14 16.985h16c0 .856-.347 1.652-.923 2.219L17.851 7.803zM14 16.985c0 2.423.979 4.722 2.68 6.397l11.226-11.401A7.023 7.023 0 0 1 30 16.985H14zm2.68 6.396A9.008 9.008 0 0 0 23 25.969v-16a6.99 6.99 0 0 1 4.906 2.011L16.68 23.381zM23 25.969a9.008 9.008 0 0 0 6.32-2.588L18.094 11.98A6.99 6.99 0 0 1 23 9.969v16zm6.32-2.588A8.979 8.979 0 0 0 32 16.984H16c0-1.901.768-3.699 2.094-5.004L29.32 23.381zM32 16.985a5.08 5.08 0 0 1-.875 2.851l-13.239-8.985A10.924 10.924 0 0 0 16 16.984h16zm-.875 2.851a5.006 5.006 0 0 1-2.252 1.827L22.831 6.848a10.986 10.986 0 0 0-4.945 4.003l13.239 8.985zm-2.252 1.827a4.96 4.96 0 0 1-2.825.275l3.075-15.702a11.049 11.049 0 0 0-6.292.611l6.042 14.815zm-2.825.275a4.984 4.984 0 0 1-2.539-1.342L34.735 9.195a11.023 11.023 0 0 0-5.611-2.959l-3.075 15.702zm-2.54-1.342a5.063 5.063 0 0 1-1.408-2.604l15.683-3.168a10.937 10.937 0 0 0-3.05-5.629L23.507 20.596zm-1.407-2.604a5.082 5.082 0 0 1 .297-2.98l14.748 6.204a10.917 10.917 0 0 0 .638-6.393l-15.683 3.168zm.297-2.979a5.042 5.042 0 0 1 1.872-2.256l8.794 13.367a10.963 10.963 0 0 0 4.082-4.907l-14.748-6.204zm1.872-2.256a4.965 4.965 0 0 1 2.73-.819v16c2.148 0 4.258-.627 6.064-1.814L24.27 12.757zm2.73-.819H1v16h26v-16zm-26 0a9.008 9.008 0 0 0-6.32 2.588L5.906 25.927A6.99 6.99 0 0 1 1 27.938v-16zm-6.32 2.588A8.979 8.979 0 0 0-8 20.923H8a7.021 7.021 0 0 1-2.094 5.004L-5.32 14.526zM-8 20.923c0 2.423.979 4.722 2.68 6.397L5.906 15.919A7.023 7.023 0 0 1 8 20.923H-8zm2.68 6.397A9.008 9.008 0 0 0 1 29.908v-16a6.99 6.99 0 0 1 4.906 2.011L-5.32 27.32zM1 29.908h19.5v-16H1v16zm19.484 0a5.479 5.479 0 0 1-3.842-1.586L27.89 16.943a10.52 10.52 0 0 0-7.375-3.035l-.031 16zm-3.842-1.587a5.557 5.557 0 0 1-1.647-3.964l16 .032a10.446 10.446 0 0 0-3.104-7.448L16.643 28.32zm-1.647-3.963a5.555 5.555 0 0 1 1.663-3.956l11.203 11.423a10.442 10.442 0 0 0 3.134-7.435l-16-.032zm1.663-3.956a5.478 5.478 0 0 1 3.848-1.571l-.032 16a10.52 10.52 0 0 0 7.386-3.006L16.657 20.402zm3.826-1.571a5.447 5.447 0 0 1 3.485 1.259L13.746 32.398a10.554 10.554 0 0 0 6.749 2.433l-.011-16zm3.486 1.259a5.518 5.518 0 0 1 1.909 3.307l-15.766 2.724a10.474 10.474 0 0 0 3.634 6.277L23.97 20.09zm1.914 3.334-.01-.059-15.776 2.671.01.059 15.776-2.671zm.027.185a8.983 8.983 0 0 0-1.201-3.404l-13.709 8.25a7.03 7.03 0 0 1-.94-2.665l15.851-2.181zm-1.201-3.404a8.998 8.998 0 0 0-2.419-2.638l-9.404 12.945a7.015 7.015 0 0 1-1.886-2.057l13.709-8.25zm-2.419-2.637a9.026 9.026 0 0 0-3.224-1.479l-3.678 15.572a7 7 0 0 1-2.503-1.148l9.404-12.945zm-3.224-1.479a9.02 9.02 0 0 0-3.529-.123l2.586 15.79a6.974 6.974 0 0 1-2.734-.095l3.678-15.572zm-3.529-.123a9.017 9.017 0 0 0-3.315 1.248l8.473 13.572a7.006 7.006 0 0 1-2.572.969l-2.586-15.79zm-3.315 1.248a9.008 9.008 0 0 0-2.595 2.456l13.089 9.202a7.017 7.017 0 0 1-2.021 1.914l-8.473-13.572zm-2.595 2.457a8.962 8.962 0 0 0-1.439 3.306l15.654 3.31a7.032 7.032 0 0 1-1.126 2.586L9.628 19.671zm-1.439 3.305a8.97 8.97 0 0 0-.019 3.62l15.688-3.146a7.023 7.023 0 0 1-.015 2.837l-15.654-3.31zm-.063 3.382.01.059 15.776-2.67-.01-.059-15.776 2.67zm.013.073a12.446 12.446 0 0 0 4.309 7.464l10.237-12.297a3.555 3.555 0 0 1 1.225 2.135L8.139 26.431zm4.308 7.464a12.566 12.566 0 0 0 8.044 2.905l-.003-16a3.43 3.43 0 0 1 2.196.798L12.447 33.895zm8.04 2.905a12.545 12.545 0 0 0 8.796-3.59L18.07 21.796a3.46 3.46 0 0 1 2.424-.997l-.007 16zm8.796-3.59A12.402 12.402 0 0 0 33 24.383l-16-.029a3.593 3.593 0 0 1 1.07-2.558L29.283 33.21zM33 24.369c0-2.576-.797-4.981-2.142-6.96l-13.231 8.996a3.642 3.642 0 0 1-.626-2.037h16zm-8.758 5.539H27v-16h-2.758v16zm2.758 0a13.04 13.04 0 0 0 9.148-3.741L24.922 14.766a2.96 2.96 0 0 1 2.077-.858v16zm9.148-3.742A12.888 12.888 0 0 0 40 16.984H24c0-.856.347-1.652.923-2.219l11.226 11.401zM40 16.985c0-3.468-1.4-6.768-3.852-9.182L24.922 19.204a3.115 3.115 0 0 1-.923-2.219h16zm-3.852-9.182A13.036 13.036 0 0 0 27 4.062v16a2.96 2.96 0 0 1-2.077-.858L36.149 7.803z"/>
    </symbol>
    <symbol id="icon-Avtomatic" viewBox="0 0 32 32">
      <path stroke-linecap="round" stroke-linejoin="round" stroke-width="2.4" d="M22.667 14.667h2a2 2 0 0 0 0-4h-2v6.667m0 5.333V28H24a2.668 2.668 0 0 0 0-5.334h-1.333zM4 6.667a2.668 2.668 0 1 0 5.336 0 2.668 2.668 0 0 0-5.336 0z"/>
      <path stroke-linecap="round" stroke-linejoin="round" stroke-width="2.4" d="M6.667 9.333v4a1.335 1.335 0 0 0 1.334 1.334h4m-.001 0V24a1.33 1.33 0 0 0 1.334 1.333h4M12 14.667h5.333"/>
    </symbol>
    <symbol id="icon-Bed" viewBox="0 0 32 32">
      <path stroke-linecap="round" stroke-linejoin="round" stroke-width="2.24" d="M3 26v-7a4.012 4.012 0 0 1 4-4h18a4.012 4.012 0 0 1 4 4v7m-5-11H6V8.5A2.504 2.504 0 0 1 8.5 6h15A2.504 2.504 0 0 1 26 8.5V15h-2z"/>
      <path stroke-linecap="round" stroke-linejoin="round" stroke-width="2.24" d="M3 26v-.5A1.504 1.504 0 0 1 4.5 24h23a1.504 1.504 0 0 1 1.5 1.5v.5M7 15v-1a2.002 2.002 0 0 1 2-2h5a2.002 2.002 0 0 1 2 2m0 0v1m0-1a2.008 2.008 0 0 1 2-2h5a2.002 2.002 0 0 1 2 2v1"/>
    </symbol>
    <symbol id="icon-Button" viewBox="0 0 32 32">
      <path stroke-linecap="round" stroke-linejoin="round" stroke-width="2.4" d="M25.333 5.333H6.666A2.667 2.667 0 0 0 3.999 8v18.667a2.667 2.667 0 0 0 2.667 2.667h18.667A2.667 2.667 0 0 0 28 26.667V8a2.667 2.667 0 0 0-2.667-2.667zM21.333 2.667V8M10.667 2.667V8M4 13.333h24"/>
    </symbol>
    <symbol id="icon-Food" viewBox="0 0 32 32">
      <path stroke-linecap="round" stroke-linejoin="round" stroke-width="2.4" d="M25.333 20V4c-6.421 6.125-6.697 11.092-6.667 16h6.667zm0 0v8H24v-4M10.667 5.333V28m-4-22.667v4a4.003 4.003 0 0 0 4 4 4.003 4.003 0 0 0 4-4v-4"/>
    </symbol>
    <symbol id="icon-Gas-colonca" viewBox="0 0 32 32">
      <path d="m26.36 9.64.013-.013-4.96-4.96L20 6.08l2.813 2.813a3.324 3.324 0 0 0-1.17 5.464 3.333 3.333 0 0 0 2.357.976c.48 0 .92-.107 1.333-.28v9.613a1.335 1.335 0 0 1-2.277.943 1.335 1.335 0 0 1-.391-.943v-6a2.668 2.668 0 0 0-2.667-2.667h-1.333V6.666a2.668 2.668 0 0 0-2.667-2.667h-8a2.668 2.668 0 0 0-2.667 2.667v21.333h13.333v-10h2v6.667a3.333 3.333 0 1 0 6.667-.001V11.998c0-.92-.373-1.76-.973-2.36zM16 18v7.333H8V16h8v2zm0-4.667H8V6.666h8v6.667zm8 0a1.333 1.333 0 1 1-.002-2.665A1.333 1.333 0 0 1 24 13.333z"/>
    </symbol>
    <symbol id="icon-Shower" viewBox="0 0 32 32">
      <path stroke-linecap="round" stroke-linejoin="round" stroke-width="2" d="m5.333 5.333 3.333 3.333M18 8.667a6.6 6.6 0 0 0-9.334 9.334M20 6.667 6.667 20m12 2.667v.013m-5.334-1.347v.013m4-4.013v.013m4-4.013v.013m-6.666 13.321v.013m8-8.013v.013m4-4.013v.013"/>
    </symbol>
    <symbol id="icon-Tv" viewBox="0 0 32 32">
      <path stroke-linecap="round" stroke-linejoin="round" stroke-width="1.8" d="M24 26H8c-2.216 0-4-1.784-4-4V12c0-2.216 1.784-4 4-4h16c2.216 0 4 1.784 4 4v10c0 2.216-1.784 4-4 4zM12 30h8M16 8l6-6M16 8l-6-6"/>
    </symbol>
    <symbol id="icon-Users" viewBox="0 0 32 32">
      <path d="M9.067 24.133h-4.4c-.267 0-.4-.133-.533-.267s-.267-.4-.133-.667c.8-2.267 2.8-3.6 5.067-3.6 2.8 0 5.067-2.4 5.067-5.2s-2.267-5.467-5.067-5.467c-2.8 0-5.067 2.4-5.067 5.333a5.69 5.69 0 0 0 1.333 3.6c-1.733.933-3.067 2.4-3.867 4.4-.267.933-.133 2.133.533 3.067s1.6 1.467 2.667 1.467h4.4c.8 0 1.333-.533 1.333-1.333s-.533-1.333-1.333-1.333zm-2.4-9.866c0-1.467 1.067-2.533 2.4-2.533s2.4 1.2 2.4 2.533c0 1.467-1.067 2.533-2.4 2.533s-2.4-1.2-2.4-2.533z"/>
      <path d="M30.533 21.467c-.933-2.533-2.8-4.4-4.933-5.467 1.2-1.067 1.867-2.667 1.867-4.533C27.467 8 24.8 5.2 21.6 5.2s-5.867 2.8-5.867 6.267A6.35 6.35 0 0 0 17.6 16c-2.133 1.067-4 2.933-4.933 5.467-.667 1.2-.4 2.533.267 3.6s1.867 1.6 3.067 1.6h11.067c1.2 0 2.4-.667 3.067-1.6.8-1.067.933-2.4.4-3.6zM18.267 11.6c0-2 1.467-3.6 3.2-3.6s3.2 1.6 3.2 3.6-1.467 3.6-3.2 3.6-3.2-1.733-3.2-3.6zm9.6 12c-.133.133-.4.533-.8.533H16c-.533 0-.8-.4-.8-.533-.133-.133-.4-.667-.133-1.2 1.067-2.8 3.733-4.667 6.533-4.667s5.467 1.867 6.533 4.667c.133.533-.133 1.067-.267 1.2z"/>
    </symbol>
    <symbol id="icon-location" viewBox="0 0 32 32">
      <path d="M16.002 17.746c3.309 0 6-2.692 6-6s-2.691-6-6-6c-3.309 0-6 2.691-6 6s2.691 6 6 6zM16.002 6.746c2.758 0 5 2.242 5 5s-2.242 5-5 5c-2.758 0-5-2.242-5-5s2.242-5 5-5zM16 0c-6.618 0-12 5.316-12 12.001 0 7 6.001 14.161 10.376 19.194 0.016 0.020 0.718 0.805 1.586 0.805 0.002 0 0.073 0 0.077 0 0.867 0 1.57-0.785 1.586-0.805 4.377-5.033 10.377-12.193 10.377-19.194 0-6.685-5.383-12.001-12.002-12.001zM16.117 29.883c-0.021 0.020-0.082 0.064-0.135 0.098-0.010-0.027-0.084-0.086-0.129-0.133-3.665-4.217-9.853-11.334-9.853-17.847 0-5.514 4.487-10.001 10-10.001 5.516 0 10.002 4.487 10.002 10.002 0 6.512-6.188 13.629-9.885 17.881z"></path>
      </symbol>
      <symbol id="icon-camper" viewBox="0 0 46 32">
        <path d="M2.608 1.8h12.409c0.105 0 0.203-0.040 0.278-0.112l1.192-1.163c0.346-0.338 0.807-0.524 1.297-0.524h18.817c0.876 0 1.69 0.425 2.176 1.136l2.255 3.3c0.32 0.468 0.349 1.067 0.077 1.564s-0.8 0.805-1.377 0.805h-9.698v0.956h4.967c1.317 0 2.501 0.763 3.018 1.945l2.908 6.65 2.548 0.994c1.36 0.531 2.24 1.797 2.24 3.227v6.158c0 0.918-0.766 1.666-1.708 1.666h-2.964c-0.345 2.039-2.164 3.599-4.35 3.599s-4.005-1.561-4.35-3.599h-16.203c-0.345 2.039-2.164 3.599-4.35 3.599s-4.005-1.561-4.35-3.599h-5.921c-0.837 0-1.518-0.664-1.518-1.481v-22.576c0-1.403 1.17-2.544 2.608-2.544zM36.692 30.594c1.637 0 2.969-1.299 2.969-2.896s-1.332-2.896-2.969-2.896c-1.637 0-2.969 1.299-2.969 2.896s1.332 2.896 2.969 2.896zM30.034 26.995h2.307c0.006-0.035 0.013-0.070 0.020-0.105 0.005-0.024 0.009-0.047 0.014-0.071 0.012-0.055 0.025-0.11 0.039-0.164 0.003-0.011 0.005-0.023 0.009-0.034 0.017-0.066 0.036-0.13 0.057-0.195 0.006-0.019 0.013-0.037 0.019-0.056 0.015-0.045 0.031-0.090 0.047-0.134 0.009-0.024 0.018-0.047 0.028-0.071 0.015-0.039 0.030-0.078 0.047-0.116 0.010-0.025 0.022-0.050 0.033-0.075 0.016-0.037 0.032-0.072 0.050-0.108 0.013-0.025 0.025-0.050 0.038-0.075 0.017-0.034 0.036-0.069 0.054-0.103 0.013-0.025 0.027-0.049 0.041-0.074 0.019-0.034 0.039-0.067 0.059-0.101 0.014-0.024 0.029-0.047 0.043-0.071 0.022-0.034 0.044-0.067 0.066-0.101 0.015-0.022 0.029-0.044 0.044-0.065 0.025-0.035 0.051-0.070 0.077-0.105 0.013-0.018 0.026-0.037 0.040-0.055 0.036-0.046 0.072-0.090 0.109-0.135 0.005-0.007 0.010-0.014 0.016-0.020 0.043-0.051 0.087-0.1 0.132-0.148 0.014-0.015 0.028-0.029 0.043-0.044 0.032-0.033 0.063-0.066 0.096-0.099 0.018-0.018 0.038-0.035 0.056-0.053 0.029-0.028 0.059-0.056 0.090-0.084 0.020-0.018 0.041-0.036 0.062-0.054 0.030-0.026 0.060-0.051 0.090-0.077l0.066-0.052c0.031-0.024 0.062-0.048 0.093-0.071 0.022-0.017 0.045-0.034 0.069-0.050 0.032-0.023 0.064-0.045 0.097-0.068 0.023-0.015 0.046-0.031 0.069-0.046 0.034-0.023 0.069-0.044 0.104-0.065 0.022-0.014 0.045-0.028 0.068-0.041 0.038-0.023 0.077-0.044 0.116-0.065 0.020-0.011 0.040-0.023 0.059-0.033 0.056-0.029 0.112-0.057 0.168-0.084 0.005-0.002 0.009-0.004 0.013-0.006 0.061-0.029 0.123-0.056 0.186-0.082 0.020-0.008 0.041-0.016 0.061-0.024 0.043-0.017 0.086-0.034 0.13-0.050 0.025-0.009 0.050-0.017 0.075-0.026 0.040-0.014 0.080-0.027 0.12-0.039 0.027-0.008 0.054-0.016 0.082-0.024 0.039-0.011 0.078-0.023 0.118-0.033 0.028-0.007 0.056-0.015 0.085-0.021 0.039-0.009 0.078-0.018 0.118-0.026 0.029-0.006 0.058-0.012 0.087-0.018 0.040-0.007 0.081-0.015 0.122-0.021 0.029-0.005 0.057-0.010 0.086-0.014 0.042-0.006 0.085-0.011 0.128-0.016 0.027-0.003 0.055-0.007 0.082-0.009 0.047-0.004 0.095-0.008 0.143-0.011 0.024-0.002 0.047-0.004 0.070-0.005 0.072-0.004 0.144-0.006 0.216-0.006s0.144 0.002 0.216 0.006c0.024 0.001 0.047 0.003 0.070 0.005 0.048 0.003 0.096 0.006 0.143 0.011 0.028 0.002 0.055 0.006 0.082 0.009 0.043 0.005 0.086 0.010 0.128 0.016 0.029 0.004 0.058 0.008 0.087 0.014 0.041 0.006 0.081 0.014 0.122 0.021 0.029 0.006 0.058 0.012 0.087 0.018 0.040 0.008 0.079 0.017 0.118 0.026 0.029 0.007 0.057 0.014 0.085 0.021 0.039 0.010 0.078 0.021 0.118 0.033 0.028 0.008 0.055 0.016 0.082 0.024 0.040 0.012 0.080 0.026 0.12 0.039 0.025 0.009 0.050 0.017 0.075 0.026 0.044 0.016 0.087 0.033 0.13 0.050 0.020 0.008 0.041 0.016 0.061 0.024 0.062 0.026 0.125 0.053 0.186 0.082 0.005 0.002 0.009 0.005 0.013 0.006 0.057 0.027 0.112 0.055 0.168 0.084 0.020 0.011 0.039 0.022 0.059 0.033 0.039 0.021 0.078 0.043 0.116 0.065 0.023 0.014 0.045 0.028 0.068 0.041 0.035 0.021 0.070 0.043 0.104 0.065 0.023 0.015 0.046 0.031 0.069 0.046 0.033 0.023 0.065 0.044 0.097 0.068 0.023 0.016 0.046 0.033 0.069 0.050 0.031 0.024 0.062 0.047 0.093 0.071l0.066 0.052c0.031 0.025 0.061 0.051 0.090 0.077 0.021 0.018 0.041 0.036 0.062 0.054 0.031 0.028 0.060 0.056 0.090 0.084 0.018 0.017 0.037 0.035 0.056 0.053 0.033 0.033 0.065 0.066 0.096 0.099 0.014 0.015 0.029 0.029 0.043 0.044 0.045 0.048 0.089 0.098 0.132 0.148 0.006 0.007 0.011 0.014 0.016 0.020 0.037 0.044 0.073 0.089 0.109 0.135 0.014 0.018 0.027 0.037 0.040 0.055 0.026 0.035 0.052 0.070 0.077 0.105 0.015 0.021 0.029 0.043 0.044 0.065 0.022 0.034 0.044 0.067 0.066 0.101 0.014 0.024 0.029 0.047 0.043 0.071 0.020 0.033 0.040 0.067 0.059 0.101 0.014 0.025 0.028 0.049 0.041 0.074 0.018 0.034 0.037 0.069 0.054 0.103 0.013 0.025 0.025 0.050 0.038 0.075 0.017 0.036 0.033 0.071 0.050 0.108 0.011 0.025 0.023 0.049 0.033 0.075 0.017 0.038 0.032 0.077 0.047 0.116 0.010 0.024 0.019 0.047 0.028 0.071 0.016 0.044 0.032 0.089 0.047 0.134 0.006 0.019 0.013 0.038 0.019 0.056 0.020 0.064 0.039 0.129 0.056 0.195 0.003 0.011 0.006 0.023 0.009 0.034 0.014 0.055 0.027 0.109 0.039 0.164 0.005 0.024 0.009 0.047 0.014 0.071 0.007 0.035 0.014 0.069 0.020 0.105h2.963c0.147 0 0.266-0.116 0.266-0.26v-2.946h-1.124v-1.406h1.124v-1.806c0-0.851-0.523-1.606-1.333-1.922l-2.697-1.052h-10.209v9.392zM30.034 16.197h9.257l-2.598-5.939c-0.29-0.662-0.954-1.090-1.692-1.090h-4.967v7.030zM11.789 30.594c1.637 0 2.969-1.299 2.969-2.896s-1.332-2.896-2.969-2.896c-0.051 0-0.102 0.001-0.153 0.004-1.364 0.067-2.488 1.038-2.756 2.309-0.010 0.047-0.019 0.095-0.027 0.143-0.015 0.096-0.025 0.193-0.030 0.291-0.003 0.049-0.004 0.099-0.004 0.149 0 1.597 1.332 2.896 2.969 2.896zM1.441 22.383h1.124v1.406h-1.124v3.131c0 0.041 0.035 0.075 0.077 0.075h5.92c0.006-0.035 0.013-0.069 0.020-0.104 0.005-0.024 0.009-0.048 0.014-0.072 0.012-0.054 0.024-0.107 0.038-0.16 0.003-0.012 0.006-0.025 0.009-0.038 0.017-0.065 0.036-0.129 0.056-0.193 0.006-0.020 0.013-0.039 0.020-0.058 0.015-0.044 0.030-0.089 0.046-0.132 0.009-0.025 0.019-0.048 0.028-0.072 0.015-0.038 0.031-0.077 0.046-0.114 0.011-0.026 0.022-0.051 0.034-0.076 0.016-0.036 0.032-0.071 0.050-0.106 0.012-0.026 0.025-0.051 0.038-0.076 0.017-0.034 0.035-0.068 0.054-0.102 0.014-0.025 0.028-0.049 0.042-0.074 0.020-0.034 0.039-0.067 0.059-0.1 0.014-0.024 0.029-0.048 0.044-0.071 0.021-0.034 0.043-0.067 0.066-0.1 0.014-0.023 0.029-0.045 0.044-0.066 0.025-0.035 0.051-0.070 0.076-0.104 0.014-0.019 0.028-0.038 0.042-0.057 0.035-0.044 0.070-0.088 0.106-0.132 0.006-0.008 0.012-0.016 0.018-0.023 0.043-0.051 0.087-0.1 0.132-0.148 0.014-0.015 0.029-0.030 0.043-0.045 0.032-0.033 0.063-0.066 0.096-0.098 0.018-0.018 0.037-0.035 0.056-0.053 0.029-0.028 0.059-0.056 0.089-0.083 0.020-0.018 0.041-0.036 0.062-0.055 0.029-0.025 0.059-0.051 0.090-0.075 0.022-0.018 0.044-0.036 0.066-0.053 0.030-0.024 0.061-0.047 0.092-0.071 0.022-0.017 0.046-0.034 0.069-0.050 0.032-0.023 0.064-0.045 0.096-0.067 0.024-0.016 0.047-0.031 0.070-0.047 0.034-0.023 0.069-0.044 0.103-0.065 0.023-0.014 0.046-0.028 0.069-0.042 0.038-0.023 0.077-0.044 0.116-0.065 0.020-0.011 0.040-0.023 0.061-0.033 0.055-0.029 0.11-0.057 0.167-0.083 0.005-0.002 0.009-0.005 0.014-0.007 0.061-0.029 0.123-0.056 0.186-0.082 0.020-0.008 0.041-0.016 0.061-0.024 0.043-0.017 0.086-0.034 0.13-0.050 0.025-0.009 0.050-0.017 0.076-0.026 0.039-0.014 0.079-0.027 0.119-0.039 0.027-0.008 0.055-0.016 0.082-0.024 0.039-0.011 0.078-0.023 0.118-0.033 0.028-0.007 0.056-0.015 0.085-0.021 0.039-0.009 0.078-0.018 0.118-0.026 0.029-0.006 0.058-0.012 0.087-0.018 0.040-0.007 0.081-0.015 0.122-0.021 0.029-0.005 0.057-0.010 0.086-0.014 0.042-0.006 0.085-0.011 0.128-0.016 0.027-0.003 0.055-0.007 0.082-0.009 0.047-0.004 0.095-0.008 0.143-0.011 0.024-0.002 0.047-0.004 0.070-0.005 0.072-0.004 0.144-0.006 0.216-0.006s0.144 0.002 0.216 0.006c0.024 0.001 0.047 0.003 0.070 0.005 0.048 0.003 0.096 0.006 0.143 0.011 0.028 0.002 0.055 0.006 0.082 0.009 0.043 0.005 0.086 0.010 0.128 0.016 0.029 0.004 0.058 0.008 0.086 0.014 0.041 0.006 0.081 0.014 0.122 0.021 0.029 0.006 0.058 0.012 0.087 0.018 0.040 0.008 0.079 0.017 0.118 0.026 0.029 0.007 0.057 0.014 0.085 0.021 0.039 0.010 0.078 0.021 0.118 0.033 0.027 0.008 0.055 0.016 0.082 0.024 0.040 0.012 0.080 0.026 0.119 0.039 0.025 0.009 0.051 0.017 0.076 0.026 0.044 0.016 0.086 0.033 0.13 0.050 0.020 0.008 0.041 0.016 0.061 0.024 0.062 0.026 0.124 0.053 0.186 0.082 0.005 0.002 0.010 0.005 0.014 0.007 0.056 0.026 0.112 0.054 0.167 0.083 0.021 0.011 0.040 0.022 0.060 0.033 0.039 0.021 0.078 0.043 0.116 0.065 0.023 0.014 0.046 0.028 0.069 0.042 0.035 0.021 0.069 0.042 0.103 0.065 0.023 0.015 0.046 0.031 0.070 0.047 0.032 0.022 0.065 0.044 0.096 0.067 0.023 0.016 0.046 0.033 0.069 0.050 0.031 0.024 0.062 0.047 0.092 0.071 0.023 0.017 0.044 0.035 0.066 0.053 0.031 0.025 0.061 0.050 0.090 0.076 0.021 0.018 0.042 0.036 0.062 0.054 0.030 0.028 0.060 0.056 0.090 0.084 0.018 0.017 0.037 0.035 0.056 0.053 0.032 0.032 0.065 0.065 0.096 0.098 0.014 0.015 0.029 0.029 0.043 0.044 0.045 0.048 0.089 0.098 0.132 0.148 0.006 0.007 0.012 0.015 0.017 0.021 0.036 0.044 0.073 0.088 0.107 0.134 0.014 0.018 0.028 0.037 0.042 0.055 0.026 0.035 0.052 0.070 0.077 0.105 0.015 0.021 0.029 0.044 0.044 0.066 0.023 0.033 0.044 0.066 0.066 0.1 0.015 0.024 0.029 0.047 0.044 0.071 0.020 0.033 0.040 0.067 0.059 0.101 0.014 0.025 0.028 0.049 0.041 0.074 0.019 0.034 0.037 0.069 0.055 0.103 0.013 0.025 0.025 0.050 0.037 0.075 0.017 0.036 0.034 0.072 0.050 0.108 0.012 0.025 0.023 0.049 0.033 0.075 0.017 0.038 0.032 0.077 0.047 0.116 0.009 0.024 0.018 0.047 0.028 0.071 0.017 0.045 0.032 0.090 0.047 0.135 0.006 0.019 0.013 0.037 0.019 0.055 0.020 0.064 0.039 0.129 0.057 0.195 0.002 0.010 0.005 0.021 0.007 0.031 0.014 0.056 0.028 0.111 0.040 0.168 0.005 0.023 0.009 0.046 0.013 0.069 0.007 0.035 0.014 0.070 0.021 0.106h12.453v-20.893c0-0.388 0.323-0.703 0.721-0.703h10.419c0.018 0 0.073 0 0.107-0.062s0.004-0.106-0.006-0.12l-2.255-3.3c-0.218-0.319-0.583-0.51-0.977-0.51h-18.817c-0.105 0-0.204 0.040-0.278 0.112l-1.192 1.163c-0.346 0.338-0.807 0.524-1.297 0.524h-12.409c-0.643 0-1.167 0.511-1.167 1.138v18.039z"></path>
        <path d="M20.116 7.198h4.558c0.921 0 1.67 0.731 1.67 1.629v15.046c0 0.388-0.323 0.703-0.721 0.703h-6.456c-0.398 0-0.721-0.315-0.721-0.703v-15.046c-0.001-0.899 0.748-1.629 1.669-1.629zM19.887 23.17h5.015v-8.267h-5.015v8.267zM19.887 13.497h5.015v-4.669c0-0.123-0.103-0.223-0.229-0.223h-4.558c-0.126 0-0.229 0.1-0.229 0.223v4.669h0.001zM5.536 7.198h8.814c1.019 0 1.848 0.809 1.848 1.802v4.1c0 0.994-0.829 1.802-1.848 1.802h-8.815c-1.019 0-1.848-0.809-1.848-1.802v-4.1c0.001-0.994 0.83-1.802 1.848-1.802zM5.129 13.1c0 0.218 0.182 0.396 0.406 0.396h8.814c0.224 0 0.406-0.178 0.406-0.396v-4.1c0-0.218-0.182-0.396-0.406-0.396h-8.815c-0.224 0-0.406 0.178-0.406 0.396v4.1h0.001z"></path>
        </symbol>
  </defs>
</svg>
